<svg width="512" height="512" viewBox="0 0 512 512" fill="none" xmlns="http://www.w3.org/2000/svg">
  <circle cx="256" cy="256" r="256" fill="black"/>
  <!-- The White O -->
  <path d="M256 120C180.891 120 120 180.891 120 256C120 331.109 180.891 392 256 392C331.109 392 392 331.109 392 256C392 180.891 331.109 120 256 120ZM256 348C205.19 348 164 306.81 164 256C164 205.19 205.19 164 256 164C306.81 164 348 205.19 348 256C348 306.81 306.81 348 256 348Z" fill="white"/>
  <!-- The Green Slash -->
  <path d="M365 140L147 410L165 425L383 155L365 140Z" fill="#22c55e"/>
</svg>
